<svg width="26" height="30" viewBox="0 0 26 30" fill="FFFFFF" xmlns="http://www.w3.org/2000/svg">
<path d="M2 15L1 15L1 13L2 13L2 15ZM2 14L2 13L26 13L26 14L26 15L2 15L2 14Z" fill="white"/>
<path d="M6.12898 11.7637L5.42188 12.4709L4.00766 11.0566L4.71477 10.3495L6.12898 11.7637ZM5.42188 11.0566L4.71477 10.3495L13.4278 1.63652L14.1349 2.34363L14.842 3.05073L6.12898 11.7637L5.42188 11.0566Z" fill="white"/>
<path d="M14.9726 25.6502L15.6797 26.3573L14.2655 27.7715L13.5584 27.0644L14.9726 25.6502ZM5.1875 17.2793L5.89461 16.5722L14.9726 25.6502L14.2655 26.3573L13.5584 27.0644L4.48039 17.9864L5.1875 17.2793Z" fill="white"/>
</svg>
