<svg width="26" height="30" viewBox="0 0 26 30" fill="FFFFFF" xmlns="http://www.w3.org/2000/svg">
<path d="M24 15.002L25 15.002L25 13.002L24 13.002L24 15.002ZM24 14.002L24 13.002L-1.26441e-07 13.002L0 14.002L1.26441e-07 15.002L24 15.002L24 14.002Z" fill="white"/>
<path d="M19.957 11.7657L20.6641 12.4728L22.0783 11.0586L21.3712 10.3515L19.957 11.7657ZM20.6641 11.0586L21.3712 10.3515L12.6582 1.63847L11.951 2.34558L11.2439 3.05269L19.957 11.7657L20.6641 11.0586Z" fill="white"/>
<path d="M11.1211 25.6502L10.414 26.3573L11.8283 27.7715L12.5354 27.0644L11.1211 25.6502ZM20.9063 17.2793L20.1991 16.5722L11.1211 25.6502L11.8283 26.3573L12.5354 27.0644L21.6134 17.9864L20.9063 17.2793Z" fill="white"/>
</svg>
