<svg width="21" height="22" viewBox="0 0 21 22" fill="#F0F0F0" xmlns="http://www.w3.org/2000/svg">
<path d="M19.2266 3.43758L19.9337 2.73047L18.5195 1.31626L17.8124 2.02336L19.2266 3.43758ZM18.5195 2.73047L17.8124 2.02336L0.778051 19.0577L1.48516 19.7648L2.19226 20.4719L19.2266 3.43758L18.5195 2.73047Z" fill="#F0F0F0"/>
<path d="M13.8047 3.89062L14.8047 3.89063L14.8047 1.89063L13.8047 1.89062L13.8047 3.89062ZM13.8047 2.89062L13.8047 1.89062L1.48263 1.89062L1.48263 2.89062L1.48262 3.89062L13.8047 3.89062L13.8047 2.89062Z" fill="#F0F0F0"/>
<path d="M17.375 19.9574L17.375 20.9574L19.375 20.9574L19.375 19.9574L17.375 19.9574ZM18.375 7.11914L17.375 7.11914L17.375 19.9574L18.375 19.9574L19.375 19.9574L19.375 7.11914L18.375 7.11914Z" fill="#F0F0F0"/>
</svg>
