<svg width="20" height="20" viewBox="0 0 20 20" fill="none" xmlns="http://www.w3.org/2000/svg">
<g clip-path="url(#clip0_241_2105)">
<path d="M8.13184 10.9838C8.95431 12.2938 10.0536 13.4079 11.3526 14.2478L13.6044 13.1474C13.6698 13.1209 13.7417 13.1148 13.8107 13.1301C13.8796 13.1453 13.9423 13.1811 13.9904 13.2328L17.0394 16.3097C17.1564 16.4207 17.2461 16.5574 17.3012 16.709C17.3563 16.8605 17.3755 17.0229 17.3571 17.1831C17.3387 17.3434 17.2833 17.4972 17.1953 17.6323C17.1073 17.7675 16.989 17.8803 16.8499 17.962L14.82 19.2393C14.5293 19.4223 14.1978 19.5304 13.8551 19.5541C13.5124 19.5778 13.1692 19.5163 12.856 19.3751C9.73059 17.9746 7.06219 15.723 5.15583 12.8777C3.3082 10.0212 2.32915 6.69003 2.33746 3.28814C2.33886 2.94942 2.42774 2.61681 2.59548 2.32254C2.76322 2.02827 3.00413 1.78232 3.29487 1.60853L5.39019 0.324362C5.52134 0.23817 5.67029 0.182766 5.82589 0.162297C5.98149 0.141827 6.1397 0.156824 6.28868 0.206163C6.43766 0.255502 6.57354 0.337906 6.68616 0.447204C6.79878 0.556501 6.88522 0.689861 6.93899 0.837297L8.5299 4.87044C8.55854 4.93458 8.56581 5.00622 8.55065 5.07481C8.53548 5.1434 8.49868 5.2053 8.44567 5.25138L6.47192 6.78086C6.70645 8.28765 7.27347 9.72334 8.13184 10.9838Z" fill="white"/>
</g>
<defs>
<clipPath id="clip0_241_2105">
<rect width="20" height="20" fill="white"/>
</clipPath>
</defs>
</svg>
