<svg width="421" height="91" viewBox="0 0 421 91" fill="none" xmlns="http://www.w3.org/2000/svg">
<g clip-path="url(#clip0_335_1205)">
<path d="M2.51337 38.3047V-0.832147H16.4566C21.2839 -0.832147 25.2135 1.00302 28.2455 4.67334C31.2776 8.34367 32.7936 13.0912 32.7936 18.9158C32.7936 24.7005 31.2776 29.3882 28.2455 32.9787C25.2534 36.5294 21.3238 38.3047 16.4566 38.3047H2.51337ZM9.75429 31.4228H15.7984C18.9102 31.4228 21.3038 30.3257 22.9794 28.1315C24.6949 25.8974 25.5526 22.7258 25.5526 18.6166C25.5526 14.5473 24.7149 11.4156 23.0393 9.22135C21.3637 7.02714 18.95 5.93003 15.7984 5.93003H9.75429V31.4228ZM43.8401 21.8481H62.451V28.6102H43.8401V21.8481ZM51.9786 8.74261L42.1645 38.3047H34.3251L47.5503 -0.832147H58.5014L71.7864 38.3047H64.0069L54.0731 8.74261L53.4148 5.39145H52.6369L51.9786 8.74261ZM86.3346 28.7299L96.1487 -0.832147H103.928L90.7629 38.3047H79.8118L66.467 -0.832147H74.2465L84.2401 28.7299L84.8984 32.0811H85.6763L86.3346 28.7299ZM108.124 21.8481H126.735V28.6102H108.124V21.8481ZM116.262 8.74261L106.448 38.3047H98.6088L111.834 -0.832147H122.785L136.07 38.3047H128.291L118.357 8.74261L117.698 5.39145H116.921L116.262 8.74261ZM152.294 -0.832147H159.535V31.4827H181.019V38.3047H152.294V-0.832147ZM184.962 -0.832147H213.686V5.98987H192.203V15.3253H212.49V22.1473H192.203V31.4827H213.686V38.3047H184.962V-0.832147ZM225.529 21.8481H244.14V28.6102H225.529V21.8481ZM233.668 8.74261L223.853 38.3047H216.014L229.239 -0.832147H240.19L253.475 38.3047H245.696L235.762 8.74261L235.104 5.39145H234.326L233.668 8.74261ZM248.874 -0.832147H279.394V5.93003H267.724V38.3047H260.484V5.93003H248.874V-0.832147ZM287.022 14.9662H309.942V21.7882H287.022V14.9662ZM306.83 -0.832147H314.131V38.3047H306.83V-0.832147ZM283.491 -0.832147H290.732V38.3047H283.491V-0.832147ZM319.14 -0.832147H347.864V5.98987H326.381V15.3253H346.667V22.1473H326.381V31.4827H347.864V38.3047H319.14V-0.832147ZM364.733 21.7882H372.513L380.831 38.3047H373.111L364.733 21.7882ZM351.807 38.3047V-0.832147H367.247C371.236 -0.832147 374.488 0.404593 377.001 2.87807C379.554 5.31166 380.831 8.42346 380.831 12.2135C380.831 15.8838 379.574 18.856 377.061 21.13C374.587 23.3641 371.316 24.4811 367.247 24.4811H359.048V38.3047H351.807ZM359.048 17.6591H366.588C368.862 17.6591 370.578 17.1804 371.735 16.2229C372.932 15.2654 373.53 13.8691 373.53 12.0339C373.53 10.119 372.932 8.62293 371.735 7.54577C370.578 6.46861 368.862 5.93003 366.588 5.93003H359.048V17.6591Z" fill="#222222"/>
<path d="M12.9195 79.7545C13.6966 79.7545 14.4149 79.5955 15.0743 79.2776C15.7337 78.9597 16.2754 78.524 16.6993 77.9706C17.1232 77.4054 17.3646 76.7637 17.4234 76.0454H20.532C20.4731 77.1758 20.0905 78.2296 19.384 79.207C18.6892 80.1725 17.7767 80.9555 16.6463 81.5561C15.5159 82.1448 14.2736 82.4392 12.9195 82.4392C11.483 82.4392 10.2289 82.186 9.1574 81.6797C8.09765 81.1734 7.21453 80.4787 6.50803 79.5955C5.8133 78.7124 5.28932 77.6998 4.93607 76.5576C4.5946 75.4036 4.42386 74.1849 4.42386 72.9015V72.1596C4.42386 70.8762 4.5946 69.6633 4.93607 68.5212C5.28932 67.3672 5.8133 66.3487 6.50803 65.4656C7.21453 64.5824 8.09765 63.8877 9.1574 63.3814C10.2289 62.8751 11.483 62.6219 12.9195 62.6219C14.4149 62.6219 15.7219 62.9281 16.8406 63.5404C17.9592 64.1409 18.8364 64.9651 19.4723 66.0131C20.1199 67.0493 20.4731 68.2268 20.532 69.5456H17.4234C17.3646 68.7567 17.1408 68.0443 16.7523 67.4084C16.3755 66.7726 15.8574 66.2663 15.198 65.8895C14.5503 65.5009 13.7908 65.3066 12.9195 65.3066C11.9186 65.3066 11.0767 65.5068 10.3938 65.9071C9.7226 66.2957 9.18683 66.8256 8.78649 67.4967C8.39791 68.1561 8.11531 68.8921 7.93869 69.7046C7.77384 70.5053 7.69141 71.3236 7.69141 72.1596V72.9015C7.69141 73.7375 7.77384 74.5617 7.93869 75.3742C8.10354 76.1867 8.38025 76.9226 8.76882 77.582C9.16917 78.2414 9.70493 78.7713 10.3761 79.1716C11.0591 79.5602 11.9069 79.7545 12.9195 79.7545ZM35.4745 78.8184V68.9804C35.4745 68.2268 35.3214 67.5733 35.0152 67.0199C34.7209 66.4547 34.2734 66.019 33.6729 65.7128C33.0724 65.4067 32.3305 65.2536 31.4474 65.2536C30.6232 65.2536 29.899 65.3949 29.2749 65.6775C28.6626 65.9601 28.1799 66.331 27.8266 66.7903C27.4851 67.2495 27.3144 67.744 27.3144 68.2739H24.0468C24.0468 67.5909 24.2235 66.9139 24.5767 66.2427C24.93 65.5715 25.4363 64.9651 26.0957 64.4235C26.7669 63.8701 27.5676 63.4344 28.4978 63.1165C29.4398 62.7868 30.4878 62.6219 31.6417 62.6219C33.0311 62.6219 34.2557 62.8574 35.3155 63.3284C36.387 63.7994 37.223 64.5118 37.8236 65.4656C38.4359 66.4076 38.742 67.5909 38.742 69.0157V77.9176C38.742 78.5534 38.795 79.2305 38.901 79.9488C39.0187 80.6671 39.1895 81.2852 39.4132 81.8033V82.0859H36.0043C35.8395 81.7091 35.71 81.2087 35.6158 80.5846C35.5216 79.9488 35.4745 79.36 35.4745 78.8184ZM36.0397 70.4994L36.075 72.7955H32.7721C31.8419 72.7955 31.0117 72.872 30.2817 73.0251C29.5516 73.1664 28.9393 73.3842 28.4448 73.6786C27.9502 73.973 27.5735 74.3439 27.3144 74.7913C27.0554 75.227 26.9258 75.7392 26.9258 76.328C26.9258 76.9285 27.0612 77.476 27.3321 77.9706C27.6029 78.4651 28.0091 78.8596 28.5508 79.154C29.1042 79.4366 29.7813 79.5779 30.582 79.5779C31.5828 79.5779 32.466 79.3659 33.2313 78.942C33.9967 78.5181 34.6031 78 35.0506 77.3877C35.5098 76.7754 35.7571 76.1808 35.7924 75.6038L37.1877 77.1758C37.1053 77.6703 36.8816 78.2179 36.5165 78.8184C36.1515 79.4189 35.6629 79.9959 35.0506 80.5493C34.45 81.091 33.7318 81.5443 32.8957 81.9093C32.0715 82.2626 31.1413 82.4392 30.1051 82.4392C28.8098 82.4392 27.6735 82.186 26.6962 81.6797C25.7307 81.1734 24.9771 80.4963 24.4354 79.6485C23.9055 78.7889 23.6406 77.8293 23.6406 76.7695C23.6406 75.7451 23.8408 74.8443 24.2411 74.0672C24.6415 73.2783 25.2185 72.6247 25.9721 72.1066C26.7257 71.5768 27.6323 71.1764 28.6921 70.9056C29.7518 70.6348 30.9352 70.4994 32.2422 70.4994H36.0397ZM47.1493 65.9778V82.0859H43.8818V62.9752H47.061L47.1493 65.9778ZM53.1193 62.8692L53.1016 65.9071C52.8308 65.8483 52.5717 65.8129 52.3244 65.8012C52.0889 65.7776 51.8181 65.7658 51.512 65.7658C50.7584 65.7658 50.0931 65.8836 49.5161 66.1191C48.9391 66.3546 48.4505 66.6843 48.0501 67.1082C47.6498 67.5321 47.3319 68.0384 47.0964 68.6271C46.8726 69.2041 46.7254 69.84 46.6548 70.5347L45.7363 71.0646C45.7363 69.9106 45.8482 68.8273 46.0719 67.8147C46.3074 66.802 46.6666 65.9071 47.1493 65.13C47.6321 64.3411 48.2444 63.7288 48.9862 63.2931C49.7398 62.8456 50.6347 62.6219 51.6709 62.6219C51.9064 62.6219 52.1773 62.6513 52.4834 62.7102C52.7896 62.7573 53.0015 62.8103 53.1193 62.8692ZM63.7167 82.4392C62.3862 82.4392 61.1792 82.2155 60.0959 81.768C59.0244 81.3088 58.1001 80.6671 57.3229 79.8428C56.5575 79.0186 55.9688 78.0412 55.5567 76.9108C55.1445 75.7804 54.9385 74.5441 54.9385 73.2017V72.4599C54.9385 70.9056 55.1681 69.522 55.6273 68.3092C56.0865 67.0846 56.7106 66.0484 57.4995 65.2006C58.2885 64.3528 59.1834 63.7111 60.1842 63.2754C61.1851 62.8397 62.2213 62.6219 63.2928 62.6219C64.6587 62.6219 65.8362 62.8574 66.8253 63.3284C67.8262 63.7994 68.6446 64.4588 69.2804 65.3066C69.9162 66.1426 70.3872 67.1317 70.6934 68.2739C70.9995 69.4043 71.1526 70.6407 71.1526 71.983V73.449H56.8814V70.782H67.8851V70.5347C67.838 69.6869 67.6613 68.8626 67.3552 68.0619C67.0608 67.2612 66.5898 66.6019 65.9422 66.0838C65.2946 65.5657 64.4114 65.3066 63.2928 65.3066C62.551 65.3066 61.8681 65.4656 61.244 65.7835C60.6199 66.0896 60.0841 66.5489 59.6367 67.1612C59.1892 67.7735 58.8419 68.5212 58.5946 69.4043C58.3473 70.2874 58.2237 71.306 58.2237 72.4599V73.2017C58.2237 74.1084 58.3473 74.9621 58.5946 75.7628C58.8537 76.5517 59.2246 77.2464 59.7073 77.8469C60.2019 78.4475 60.7965 78.9185 61.4913 79.2599C62.1978 79.6014 62.9985 79.7722 63.8933 79.7722C65.0473 79.7722 66.0246 79.5367 66.8253 79.0657C67.626 78.5947 68.3266 77.9647 68.9271 77.1758L70.9053 78.7477C70.4932 79.3718 69.9692 79.9664 69.3334 80.5316C68.6975 81.0968 67.9145 81.5561 66.9843 81.9093C66.0658 82.2626 64.9766 82.4392 63.7167 82.4392Z" fill="#C75528"/>
<path d="M100.363 65.9778V82.0859H97.0959V62.9752H100.275L100.363 65.9778ZM106.333 62.8692L106.316 65.9071C106.045 65.8483 105.786 65.8129 105.539 65.8012C105.303 65.7776 105.032 65.7658 104.726 65.7658C103.972 65.7658 103.307 65.8836 102.73 66.1191C102.153 66.3546 101.665 66.6843 101.264 67.1082C100.864 67.5321 100.546 68.0384 100.31 68.6271C100.087 69.2041 99.9395 69.84 99.8689 70.5347L98.9504 71.0646C98.9504 69.9106 99.0623 68.8273 99.286 67.8147C99.5215 66.802 99.8807 65.9071 100.363 65.13C100.846 64.3411 101.459 63.7288 102.2 63.2931C102.954 62.8456 103.849 62.6219 104.885 62.6219C105.121 62.6219 105.391 62.6513 105.697 62.7102C106.004 62.7573 106.216 62.8103 106.333 62.8692ZM116.931 82.4392C115.6 82.4392 114.393 82.2155 113.31 81.768C112.238 81.3088 111.314 80.6671 110.537 79.8428C109.772 79.0186 109.183 78.0412 108.771 76.9108C108.359 75.7804 108.153 74.5441 108.153 73.2017V72.4599C108.153 70.9056 108.382 69.522 108.841 68.3092C109.301 67.0846 109.925 66.0484 110.714 65.2006C111.503 64.3528 112.397 63.7111 113.398 63.2754C114.399 62.8397 115.435 62.6219 116.507 62.6219C117.873 62.6219 119.05 62.8574 120.039 63.3284C121.04 63.7994 121.859 64.4588 122.494 65.3066C123.13 66.1426 123.601 67.1317 123.907 68.2739C124.214 69.4043 124.367 70.6407 124.367 71.983V73.449H110.095V70.782H121.099V70.5347C121.052 69.6869 120.875 68.8626 120.569 68.0619C120.275 67.2612 119.804 66.6019 119.156 66.0838C118.509 65.5657 117.626 65.3066 116.507 65.3066C115.765 65.3066 115.082 65.4656 114.458 65.7835C113.834 66.0896 113.298 66.5489 112.851 67.1612C112.403 67.7735 112.056 68.5212 111.809 69.4043C111.561 70.2874 111.438 71.306 111.438 72.4599V73.2017C111.438 74.1084 111.561 74.9621 111.809 75.7628C112.068 76.5517 112.439 77.2464 112.921 77.8469C113.416 78.4475 114.011 78.9185 114.705 79.2599C115.412 79.6014 116.213 79.7722 117.107 79.7722C118.261 79.7722 119.239 79.5367 120.039 79.0657C120.84 78.5947 121.541 77.9647 122.141 77.1758L124.119 78.7477C123.707 79.3718 123.183 79.9664 122.547 80.5316C121.912 81.0968 121.129 81.5561 120.198 81.9093C119.28 82.2626 118.191 82.4392 116.931 82.4392ZM139.309 77.0168C139.309 76.5458 139.203 76.1101 138.991 75.7098C138.791 75.2977 138.373 74.9268 137.737 74.5971C137.113 74.2556 136.171 73.9612 134.911 73.7139C133.851 73.4902 132.892 73.2253 132.032 72.9191C131.184 72.613 130.46 72.2421 129.86 71.8064C129.271 71.3707 128.818 70.8585 128.5 70.2698C128.182 69.681 128.023 68.9922 128.023 68.2032C128.023 67.4496 128.188 66.7373 128.517 66.0661C128.859 65.3949 129.336 64.8003 129.948 64.2822C130.572 63.7641 131.32 63.3578 132.191 63.0635C133.063 62.7691 134.034 62.6219 135.105 62.6219C136.636 62.6219 137.943 62.8927 139.027 63.4344C140.11 63.976 140.94 64.7002 141.517 65.6069C142.094 66.5018 142.382 67.4967 142.382 68.5918H139.115C139.115 68.0619 138.956 67.5497 138.638 67.0552C138.332 66.5489 137.878 66.1309 137.278 65.8012C136.689 65.4715 135.965 65.3066 135.105 65.3066C134.199 65.3066 133.463 65.4479 132.898 65.7305C132.344 66.0013 131.938 66.3487 131.679 66.7726C131.432 67.1965 131.308 67.6439 131.308 68.1149C131.308 68.4682 131.367 68.7861 131.485 69.0687C131.614 69.3395 131.838 69.5927 132.156 69.8282C132.474 70.0519 132.921 70.2639 133.498 70.464C134.075 70.6642 134.811 70.8644 135.706 71.0646C137.272 71.4178 138.561 71.8417 139.574 72.3363C140.587 72.8308 141.34 73.4372 141.835 74.1555C142.329 74.8738 142.577 75.7451 142.577 76.7695C142.577 77.6056 142.4 78.3709 142.047 79.0657C141.705 79.7604 141.205 80.3609 140.546 80.8672C139.898 81.3618 139.121 81.7504 138.214 82.033C137.319 82.3038 136.312 82.4392 135.194 82.4392C133.51 82.4392 132.085 82.1389 130.919 81.5384C129.754 80.9379 128.871 80.1607 128.27 79.207C127.67 78.2532 127.369 77.2464 127.369 76.1867H130.655C130.702 77.0816 130.961 77.794 131.432 78.3238C131.903 78.8419 132.48 79.2128 133.163 79.4366C133.846 79.6485 134.523 79.7545 135.194 79.7545C136.089 79.7545 136.836 79.6367 137.437 79.4012C138.049 79.1657 138.514 78.8419 138.832 78.4298C139.15 78.0177 139.309 77.5467 139.309 77.0168ZM154.87 62.9752V65.4832H144.537V62.9752H154.87ZM148.034 58.3299H151.302V77.3524C151.302 78 151.402 78.4887 151.602 78.8184C151.802 79.1481 152.061 79.3659 152.379 79.4719C152.697 79.5779 153.039 79.6309 153.404 79.6309C153.675 79.6309 153.957 79.6073 154.252 79.5602C154.558 79.5013 154.787 79.4542 154.94 79.4189L154.958 82.0859C154.699 82.1684 154.358 82.2449 153.934 82.3155C153.522 82.398 153.021 82.4392 152.432 82.4392C151.632 82.4392 150.896 82.2802 150.225 81.9623C149.553 81.6444 149.018 81.1145 148.617 80.3727C148.229 79.6191 148.034 78.6064 148.034 77.3347V58.3299ZM157.484 72.7425V72.3363C157.484 70.9586 157.684 69.681 158.084 68.5035C158.485 67.3142 159.062 66.2839 159.815 65.4126C160.569 64.5295 161.481 63.8465 162.553 63.3637C163.624 62.8692 164.826 62.6219 166.156 62.6219C167.498 62.6219 168.705 62.8692 169.777 63.3637C170.86 63.8465 171.779 64.5295 172.532 65.4126C173.298 66.2839 173.88 67.3142 174.281 68.5035C174.681 69.681 174.881 70.9586 174.881 72.3363V72.7425C174.881 74.1202 174.681 75.3978 174.281 76.5753C173.88 77.7527 173.298 78.7831 172.532 79.6662C171.779 80.5375 170.866 81.2205 169.795 81.715C168.735 82.1978 167.534 82.4392 166.191 82.4392C164.849 82.4392 163.642 82.1978 162.571 81.715C161.499 81.2205 160.581 80.5375 159.815 79.6662C159.062 78.7831 158.485 77.7527 158.084 76.5753C157.684 75.3978 157.484 74.1202 157.484 72.7425ZM160.751 72.3363V72.7425C160.751 73.6963 160.863 74.5971 161.087 75.4449C161.311 76.2809 161.646 77.0227 162.094 77.6703C162.553 78.3179 163.124 78.8302 163.807 79.207C164.49 79.572 165.285 79.7545 166.191 79.7545C167.086 79.7545 167.869 79.572 168.541 79.207C169.223 78.8302 169.789 78.3179 170.236 77.6703C170.684 77.0227 171.019 76.2809 171.243 75.4449C171.478 74.5971 171.596 73.6963 171.596 72.7425V72.3363C171.596 71.3943 171.478 70.5053 171.243 69.6692C171.019 68.8214 170.678 68.0737 170.218 67.4261C169.771 66.7667 169.206 66.2486 168.523 65.8718C167.852 65.495 167.063 65.3066 166.156 65.3066C165.261 65.3066 164.472 65.495 163.789 65.8718C163.118 66.2486 162.553 66.7667 162.094 67.4261C161.646 68.0737 161.311 68.8214 161.087 69.6692C160.863 70.5053 160.751 71.3943 160.751 72.3363ZM182.247 65.9778V82.0859H178.979V62.9752H182.158L182.247 65.9778ZM188.216 62.8692L188.199 65.9071C187.928 65.8483 187.669 65.8129 187.422 65.8012C187.186 65.7776 186.915 65.7658 186.609 65.7658C185.856 65.7658 185.19 65.8836 184.613 66.1191C184.036 66.3546 183.548 66.6843 183.147 67.1082C182.747 67.5321 182.429 68.0384 182.194 68.6271C181.97 69.2041 181.823 69.84 181.752 70.5347L180.834 71.0646C180.834 69.9106 180.945 68.8273 181.169 67.8147C181.405 66.802 181.764 65.9071 182.247 65.13C182.729 64.3411 183.342 63.7288 184.083 63.2931C184.837 62.8456 185.732 62.6219 186.768 62.6219C187.004 62.6219 187.274 62.6513 187.581 62.7102C187.887 62.7573 188.099 62.8103 188.216 62.8692ZM201.799 78.8184V68.9804C201.799 68.2268 201.646 67.5733 201.34 67.0199C201.045 66.4547 200.598 66.019 199.997 65.7128C199.397 65.4067 198.655 65.2536 197.772 65.2536C196.948 65.2536 196.223 65.3949 195.599 65.6775C194.987 65.9601 194.504 66.331 194.151 66.7903C193.81 67.2495 193.639 67.744 193.639 68.2739H190.371C190.371 67.5909 190.548 66.9139 190.901 66.2427C191.254 65.5715 191.761 64.9651 192.42 64.4235C193.091 63.8701 193.892 63.4344 194.822 63.1165C195.764 62.7868 196.812 62.6219 197.966 62.6219C199.356 62.6219 200.58 62.8574 201.64 63.3284C202.711 63.7994 203.548 64.5118 204.148 65.4656C204.76 66.4076 205.066 67.5909 205.066 69.0157V77.9176C205.066 78.5534 205.119 79.2305 205.225 79.9488C205.343 80.6671 205.514 81.2852 205.738 81.8033V82.0859H202.329C202.164 81.7091 202.034 81.2087 201.94 80.5846C201.846 79.9488 201.799 79.36 201.799 78.8184ZM202.364 70.4994L202.399 72.7955H199.097C198.166 72.7955 197.336 72.872 196.606 73.0251C195.876 73.1664 195.264 73.3842 194.769 73.6786C194.275 73.973 193.898 74.3439 193.639 74.7913C193.38 75.227 193.25 75.7392 193.25 76.328C193.25 76.9285 193.386 77.476 193.657 77.9706C193.927 78.4651 194.334 78.8596 194.875 79.154C195.429 79.4366 196.106 79.5779 196.906 79.5779C197.907 79.5779 198.79 79.3659 199.556 78.942C200.321 78.5181 200.928 78 201.375 77.3877C201.834 76.7754 202.082 76.1808 202.117 75.6038L203.512 77.1758C203.43 77.6703 203.206 78.2179 202.841 78.8184C202.476 79.4189 201.987 79.9959 201.375 80.5493C200.774 81.091 200.056 81.5443 199.22 81.9093C198.396 82.2626 197.466 82.4392 196.43 82.4392C195.134 82.4392 193.998 82.186 193.021 81.6797C192.055 81.1734 191.302 80.4963 190.76 79.6485C190.23 78.7889 189.965 77.8293 189.965 76.7695C189.965 75.7451 190.165 74.8443 190.566 74.0672C190.966 73.2783 191.543 72.6247 192.297 72.1066C193.05 71.5768 193.957 71.1764 195.017 70.9056C196.076 70.6348 197.26 70.4994 198.567 70.4994H202.364ZM218.207 62.9752V65.4832H207.875V62.9752H218.207ZM211.372 58.3299H214.64V77.3524C214.64 78 214.74 78.4887 214.94 78.8184C215.14 79.1481 215.399 79.3659 215.717 79.4719C216.035 79.5779 216.376 79.6309 216.741 79.6309C217.012 79.6309 217.295 79.6073 217.589 79.5602C217.895 79.5013 218.125 79.4542 218.278 79.4189L218.296 82.0859C218.037 82.1684 217.695 82.2449 217.271 82.3155C216.859 82.398 216.359 82.4392 215.77 82.4392C214.969 82.4392 214.233 82.2802 213.562 81.9623C212.891 81.6444 212.355 81.1145 211.955 80.3727C211.566 79.6191 211.372 78.6064 211.372 77.3347V58.3299ZM225.59 62.9752V82.0859H222.305V62.9752H225.59ZM222.058 57.906C222.058 57.3762 222.217 56.9287 222.535 56.5637C222.864 56.1987 223.347 56.0162 223.983 56.0162C224.607 56.0162 225.084 56.1987 225.414 56.5637C225.755 56.9287 225.926 57.3762 225.926 57.906C225.926 58.4124 225.755 58.848 225.414 59.2131C225.084 59.5663 224.607 59.7429 223.983 59.7429C223.347 59.7429 222.864 59.5663 222.535 59.2131C222.217 58.848 222.058 58.4124 222.058 57.906ZM229.971 72.7425V72.3363C229.971 70.9586 230.171 69.681 230.571 68.5035C230.971 67.3142 231.548 66.2839 232.302 65.4126C233.056 64.5295 233.968 63.8465 235.04 63.3637C236.111 62.8692 237.312 62.6219 238.643 62.6219C239.985 62.6219 241.192 62.8692 242.264 63.3637C243.347 63.8465 244.265 64.5295 245.019 65.4126C245.784 66.2839 246.367 67.3142 246.768 68.5035C247.168 69.681 247.368 70.9586 247.368 72.3363V72.7425C247.368 74.1202 247.168 75.3978 246.768 76.5753C246.367 77.7527 245.784 78.7831 245.019 79.6662C244.265 80.5375 243.353 81.2205 242.281 81.715C241.222 82.1978 240.02 82.4392 238.678 82.4392C237.336 82.4392 236.129 82.1978 235.057 81.715C233.986 81.2205 233.067 80.5375 232.302 79.6662C231.548 78.7831 230.971 77.7527 230.571 76.5753C230.171 75.3978 229.971 74.1202 229.971 72.7425ZM233.238 72.3363V72.7425C233.238 73.6963 233.35 74.5971 233.574 75.4449C233.797 76.2809 234.133 77.0227 234.58 77.6703C235.04 78.3179 235.611 78.8302 236.294 79.207C236.977 79.572 237.771 79.7545 238.678 79.7545C239.573 79.7545 240.356 79.572 241.027 79.207C241.71 78.8302 242.275 78.3179 242.723 77.6703C243.17 77.0227 243.506 76.2809 243.73 75.4449C243.965 74.5971 244.083 73.6963 244.083 72.7425V72.3363C244.083 71.3943 243.965 70.5053 243.73 69.6692C243.506 68.8214 243.164 68.0737 242.705 67.4261C242.258 66.7667 241.693 66.2486 241.01 65.8718C240.338 65.495 239.549 65.3066 238.643 65.3066C237.748 65.3066 236.959 65.495 236.276 65.8718C235.605 66.2486 235.04 66.7667 234.58 67.4261C234.133 68.0737 233.797 68.8214 233.574 69.6692C233.35 70.5053 233.238 71.3943 233.238 72.3363ZM254.733 67.0552V82.0859H251.466V62.9752H254.557L254.733 67.0552ZM253.956 71.8064L252.596 71.7534C252.608 70.4464 252.802 69.2394 253.179 68.1326C253.556 67.014 254.086 66.0425 254.769 65.2183C255.452 64.394 256.264 63.7582 257.206 63.3107C258.16 62.8515 259.214 62.6219 260.368 62.6219C261.31 62.6219 262.157 62.7514 262.911 63.0105C263.665 63.2578 264.306 63.6581 264.836 64.2115C265.378 64.765 265.79 65.4832 266.073 66.3664C266.355 67.2377 266.496 68.3033 266.496 69.5633V82.0859H263.211V69.5279C263.211 68.5271 263.064 67.7264 262.77 67.1258C262.475 66.5135 262.046 66.072 261.48 65.8012C260.915 65.5186 260.22 65.3773 259.396 65.3773C258.584 65.3773 257.842 65.548 257.171 65.8895C256.511 66.2309 255.94 66.7019 255.457 67.3025C254.986 67.903 254.616 68.5918 254.345 69.369C254.086 70.1343 253.956 70.9468 253.956 71.8064Z" fill="#C75528"/>
<path d="M84.8672 52.8672V89.0399" stroke="#C75528" stroke-width="2.78252"/>
<rect x="400.684" y="19.4766" width="19.4776" height="19.4776" fill="#C75528"/>
</g>
<defs>
<clipPath id="clip0_335_1205">
<rect width="420.16" height="90.0853" fill="white"/>
</clipPath>
</defs>
</svg>
